<svg xmlns="http://www.w3.org/2000/svg" width="28" height="23" viewBox="0 0 28 23">
  <path fill="#FFF" fill-rule="evenodd" d="M1098.36159,942.450196 L1107.94423,952.038839 C1108.27913,952.320898 1108.49213,952.743351 1108.49213,953.216462 C1108.49213,953.66451 1108.30064,954.067601 1107.99459,954.348385 L1098.36159,963.981996 C1097.76263,964.583556 1096.78865,964.583556 1096.18712,963.981996 C1095.88764,963.682516 1095.73399,963.289262 1095.73399,962.893462 C1095.734,962.497362 1095.88504,962.104129 1096.18452,961.804662 L1103.238,954.752 L1082.53907,954.752929 C1081.68493,954.750329 1081,954.065462 1081,953.213862 C1081,952.364929 1081.68747,951.677396 1082.53907,951.677396 L1103.237,951.677 L1096.18452,944.624662 C1095.58296,944.025702 1095.58296,943.051729 1096.18452,942.450196 C1096.78348,941.851236 1097.75745,941.848636 1098.36159,942.450196 Z" transform="translate(-1081 -942)"/>
</svg>
