<svg width="24" height="24" viewBox="0 0 24 24" fill="none" xmlns="http://www.w3.org/2000/svg">
<path fill-rule="evenodd" clip-rule="evenodd" d="M0.438764 0.438764C1.02519 -0.146255 1.97443 -0.146255 2.56085 0.438764L12 9.87935L21.4391 0.438764C22.0256 -0.146255 22.9748 -0.146255 23.5612 0.438764C24.1463 1.02519 24.1463 1.97443 23.5612 2.56085L14.1206 12L23.5612 21.4391C24.1463 22.0256 24.1463 22.9748 23.5612 23.5612C22.9748 24.1463 22.0256 24.1463 21.4391 23.5612L12 14.1206L2.56085 23.5612C1.97443 24.1463 1.02519 24.1463 0.438764 23.5612C-0.146255 22.9748 -0.146255 22.0256 0.438764 21.4391L9.87935 12L0.438764 2.56085C-0.146255 1.97443 -0.146255 1.02519 0.438764 0.438764Z" fill="black"/>
</svg>
