<svg xmlns="http://www.w3.org/2000/svg" width="32" height="34" viewBox="0 0 32 34">
  <path fill="red" d="M15.912,0.358 C25.351,0.358 30.989,2.827 30.989,2.827 C30.989,2.827 31.495,13.76 29.355,19.942 C25.573,30.812 15.913,33.865 15.907,33.865 C15.907,33.865 6.245,30.812 2.465,19.942 C0.325,13.76 0.83,2.827 0.83,2.827 C0.83,2.827 6.469,0.358 15.912,0.358 Z M18.901,5.226 L12.878,5.226 L12.878,12.252 L5.85,12.252 L5.85,18.276 L12.878,18.276 L12.878,25.304 L18.902,25.304 L18.902,18.276 L25.93,18.276 L25.93,12.252 L18.902,12.252 L18.901,5.226 Z"/>
</svg>
