<svg xmlns="http://www.w3.org/2000/svg" viewBox="0 0 101 92">
  <path fill-rule="evenodd" d="M875.566183,423 C876.358823,423 877.115588,423.313085 877.677078,423.88114 L877.677078,423.88114 L913.378951,459.611494 L925.123247,471.370634 C925.683729,471.92615 925.99998,472.686739 925.99998,473.477423 C925.99998,474.269223 925.682727,475.030583 925.121211,475.589595 C924.566038,476.178694 923.825415,476.500903 923.04881,476.500903 C922.26643,476.500903 921.520594,476.173853 920.987242,475.600258 L920.987242,475.600258 L914.194775,468.90416 L914.194775,512.029001 C914.194775,512.817184 913.881357,513.5753 913.326197,514.130968 C912.768303,514.68934 912.014353,515 911.2274,515 L911.2274,515 L839.827452,515 C839.040432,515 838.286532,514.689355 837.728699,514.131012 C837.173513,513.57528 836.860078,512.81712 836.860078,512.029001 L836.860078,512.029001 L836.860078,468.721283 L829.846029,475.741739 C829.294061,476.270156 828.560508,476.566474 827.795987,476.56569 C827.235984,476.535072 826.708306,476.345854 826.265438,476.035509 C825.816836,475.721146 825.455135,475.282437 825.234217,474.755381 C825.012408,474.229821 824.950507,473.664238 825.038477,473.122825 C825.124894,472.590974 825.355933,472.082514 825.721731,471.658206 L825.721731,471.658206 L837.757317,459.61575 L873.463114,423.877317 C874.020544,423.313395 874.776883,423 875.566183,423 Z M875.49998,429.576405 L842.99998,462.506179 L842.99998,509 L907.99998,509 L907.99998,462.506179 L875.49998,429.576405 Z" transform="translate(-825 -423)" />
</svg>