<svg xmlns="http://www.w3.org/2000/svg" width="19" height="24" viewBox="0 0 19 24">
  <path fill="#A36E16" d="M1669.81818,1319.03316 L1669.81818,1329.57087 C1669.81818,1330.24085 1669.54298,1330.84864 1669.09805,1331.2888 C1668.65419,1331.7279 1668.04143,1332 1667.36568,1332 L1653.4525,1332 C1652.77675,1332 1652.16399,1331.7279 1651.72013,1331.2888 C1651.2752,1330.84864 1651,1330.24085 1651,1329.57087 L1651,1319.03439 C1651,1318.36442 1651.2752,1317.75663 1651.72013,1317.31647 C1652.16399,1316.87737 1652.77675,1316.60527 1653.4525,1316.60527 L1654.64794,1316.60527 L1654.64794,1313.70223 C1654.64794,1312.12974 1655.29415,1310.70367 1656.33815,1309.67087 C1657.38107,1308.63912 1658.82097,1308 1660.40903,1308 C1661.99708,1308 1663.43698,1308.63912 1664.47991,1309.67087 C1665.52391,1310.70367 1666.17011,1312.12974 1666.17011,1313.70223 L1666.17011,1316.60404 L1667.36556,1316.60404 C1668.04119,1316.60404 1668.65386,1316.8763 1669.09771,1317.31537 C1669.54288,1317.75574 1669.81818,1318.36369 1669.81818,1319.03316 Z M1664.36364,1316.72727 L1664.36364,1313.82829 C1664.36364,1312.74819 1663.92011,1311.7688 1663.20465,1311.05933 C1662.48836,1310.34902 1661.49946,1309.90909 1660.40909,1309.90909 C1659.31872,1309.90909 1658.32982,1310.34902 1657.61353,1311.05933 C1656.89807,1311.7688 1656.45455,1312.74819 1656.45455,1313.82829 L1656.45455,1316.72727 L1664.36364,1316.72727 Z M1653.29999,1318.36364 C1653.11654,1318.36364 1652.94985,1318.43656 1652.82912,1318.55464 C1652.71061,1318.67055 1652.63636,1318.8303 1652.63636,1319.00672 L1652.63636,1329.44783 C1652.63636,1329.62425 1652.71061,1329.784 1652.82912,1329.89991 C1652.94985,1330.01799 1653.11654,1330.09091 1653.29999,1330.09091 L1667.24546,1330.09091 C1667.42891,1330.09091 1667.59561,1330.01799 1667.71634,1329.89991 C1667.83485,1329.784 1667.90909,1329.62425 1667.90909,1329.44783 L1667.90909,1319.00672 C1667.90909,1318.8303 1667.83485,1318.67055 1667.71634,1318.55464 C1667.59561,1318.43656 1667.42891,1318.36364 1667.24546,1318.36364 L1653.29999,1318.36364 Z" transform="translate(-1651 -1308)"/>
</svg>
