<svg xmlns="http://www.w3.org/2000/svg" width="86" height="84" viewBox="0 0 86 84">
    <g>
      <path d="M58.667993,42 C58.671906,42.73047 58.293,43.4102 57.667993,43.793 L36.836,56.293 L36.832093,56.293 C36.507873,56.49222 36.132873,56.58988 35.750093,56.58206 C35.386813,56.58206 35.031343,56.496123 34.707093,56.33206 C34.066473,55.94534 33.671893,55.25006 33.667993,54.50006 L33.667993,29.50006 C33.671899,28.75006 34.066433,28.05476 34.707093,27.66806 C35.371153,27.31259 36.167993,27.31259 36.832093,27.66806 L57.664093,40.16806 L57.667993,40.16806 C58.30472,40.55478 58.6875,41.25396 58.667993,42.00006 L58.667993,42 Z"/>
      <path d="M84.543,12.832 C83.78519,12.49997 82.9024,12.64841 82.293,13.207 L76.25,18.75 C68.6445,7.254 55.781,0.34 42,0.332 C30.949,0.332 20.352,4.7226 12.539,12.539 C4.7226,20.3515 0.332,30.949 0.332,42 C0.332,53.051 4.7226,63.648 12.539,71.461 C20.3515,79.2774 30.949,83.668 42,83.668 C53.051,83.668 63.648,79.2774 71.461,71.461 C79.2774,63.6485 83.668,53.051 83.668,42 L75.3321,42 C75.3321,50.8398 71.8204,59.32 65.5704,65.57 C59.3204,71.82 50.8404,75.3317 42.0004,75.3317 C33.1604,75.3317 24.6804,71.82 18.4304,65.57 C12.1804,59.32 8.6687,50.84 8.6687,42 C8.6687,33.16 12.1804,24.68 18.4304,18.43 C24.6804,12.18 33.1604,8.6683 42.0004,8.6683 C53.4184,8.687831 64.0044,14.6331 69.9574,24.3753 L63.5433,30.0433 C62.87924,30.6058 62.64486,31.5238 62.95736,32.3324 C63.28158,33.13318 64.05506,33.6605 64.91826,33.6683 L83.66826,33.6683 C84.21904,33.6683 84.75026,33.44564 85.14096,33.05502 C85.53158,32.66439 85.75034,32.13705 85.75034,31.58232 L85.75034,14.91432 L85.75034,14.918227 C85.816746,14.039317 85.33628,13.211227 84.54334,12.832327 L84.543,12.832 Z"/>
    </g>
</svg>
