<svg xmlns="http://www.w3.org/2000/svg" width="141" height="94" viewBox="0 0 141 94">
  <path d="M624.968864,251 L624.968864,257.286374 L556.347741,257.286374 L556.347741,325.714314 L666.650521,325.714314 L666.650521,305.339967 L673,305.339967 L673,332 L550,332 L550,251 L624.968864,251 Z M635,255 C645.998407,255.066392 655.965888,259.455838 663.200342,266.511625 C670.43002,273.562753 674.930192,283.276966 675,293.999527 L675,293.999527 L668.619117,294 C668.549424,284.98981 664.764125,276.824204 658.684988,270.894784 C652.608105,264.967561 644.239005,261.275125 635,261.208822 L635,261.208822 Z M634,238 C649.684168,238.064677 663.898985,244.359034 674.210356,254.489502 C684.522562,264.62079 690.930778,278.588893 691,294 L691,294 L684.587888,293.998882 C684.518748,280.325531 678.830478,267.934506 669.680228,258.944788 C660.529702,249.9548 647.91707,244.366406 634,244.298467 L634,244.298467 Z M634,270 C640.584755,270.068306 646.55109,272.77553 650.888085,277.112435 C655.224183,281.448443 657.931705,287.413555 658,293.999521 L658,293.999521 L651.697967,294 C651.630047,289.149874 649.630322,284.758348 646.43505,281.56245 C643.239908,278.366682 638.849401,276.366524 634,276.298583 L634,276.298583 Z" transform="translate(-550 -238)"/>
</svg>
