<svg xmlns="http://www.w3.org/2000/svg" width="94" height="94" viewBox="0 0 94 94">
  <path fill-rule="evenodd" d="M324.847292,328.440555 L298.128292,301.721557 C306.542392,291.776257 309.190292,278.178557 305.128292,265.799557 C301.065792,253.424557 290.870292,244.045557 278.198292,241.022557 C265.526292,238.003057 252.194292,241.772557 242.983292,250.983457 C233.772393,260.194357 230.003294,273.526457 233.022393,286.198457 C236.045793,298.870457 245.424392,309.065457 257.799392,313.128457 C270.178392,317.190957 283.776392,314.542557 293.721392,306.128457 L320.440392,332.847455 C321.678692,333.909955 323.530192,333.839645 324.682592,332.683395 C325.838792,331.531095 325.909192,329.679495 324.846652,328.441195 L324.847292,328.440555 Z M238.253292,277.534557 C238.253292,269.245457 241.546292,261.296557 247.405592,255.436557 C253.264892,249.576557 261.214592,246.284257 269.503592,246.284257 C277.792592,246.284257 285.741592,249.577257 291.601592,255.436557 C297.461592,261.295857 300.753892,269.245557 300.753892,277.534557 C300.753892,285.823557 297.460892,293.772557 291.601592,299.632557 C285.742292,305.492557 277.792592,308.784857 269.503592,308.784857 C261.214592,308.784857 253.265592,305.491857 247.405592,299.632557 C241.545592,293.773257 238.253292,285.823557 238.253292,277.534557 Z" transform="translate(-232 -240)"/>
</svg>
