<svg xmlns="http://www.w3.org/2000/svg" width="15" height="15" viewBox="0 0 15 15">
  <path fill="#FFF" d="M5.65260562,0 C8.78297128,0 11.3043765,2.52132055 11.3043765,5.65158113 C11.3043765,6.91265877 10.9130808,8.08650649 10.2177222,8.99949916 L10.2177222,8.99949916 L14.7388244,13.5212858 C15.0869225,13.8693499 15.0869225,14.39106 14.7396398,14.739145 C14.565174,14.9127763 14.348344,15 14.1306793,15 C13.9130145,15 13.695356,14.9127763 13.5217188,14.739145 L13.5217188,14.739145 L8.99980128,10.2173792 C8.04274415,10.9127144 6.91289084,11.303997 5.65177086,11.303997 C2.5214052,11.303997 0,8.78267644 0,5.65241587 C0,2.52215529 2.52223996,0 5.65260562,0 Z M5.65260562,1.73959014 C3.47846232,1.73959014 1.73964854,3.47834555 1.73964854,5.65241587 C1.73964854,7.82648618 3.47846232,9.56524159 5.65260562,9.56524159 C7.82593502,9.56524159 9.5655627,7.82565144 9.5655627,5.65241587 C9.5655627,3.47834555 7.82674892,1.73959014 5.65260562,1.73959014 Z" transform="matrix(-1 0 0 1 15 0)"/>
</svg>
