<svg xmlns="http://www.w3.org/2000/svg" width="94" height="94" viewBox="0 0 94 94">
  <path d="M451.701676,262.936713 C451.701676,249.272809 440.782048,238 427.069343,238 C413.360761,238 402.441722,249.272574 402.441722,262.936713 C402.441722,272.588983 407.885456,281.043237 415.915879,285.179185 C396.358443,288.993305 380.792128,303.680504 379.038061,322.650642 C378.541079,328.066619 382.990897,332 387.716747,332 L464.287843,332 C469.009099,332 473.45894,328.066502 472.961935,322.650642 C471.259347,304.168123 456.437892,289.755753 437.589622,285.496431 C445.968621,281.488321 451.701676,272.840664 451.701676,262.936713 Z M445.81218,262.936713 C445.81218,273.465639 437.423404,281.9985 427.069932,281.9985 C416.720818,281.9985 408.332396,273.466109 408.332396,262.936713 C408.332396,252.407787 416.721172,243.874927 427.069932,243.874927 C437.42364,243.874927 445.81218,252.407317 445.81218,262.936713 Z M464.287254,326.123898 L387.716158,326.123898 C386.087196,326.123898 384.757333,324.80204 384.904585,323.186435 C386.611767,304.656917 404.360712,290.084749 426.00206,290.084749 C447.638695,290.084749 465.387875,304.656917 467.094822,323.186435 C467.246091,324.80204 465.911622,326.123898 464.287254,326.123898 Z" transform="translate(-379 -238)"/>
</svg>
