<svg xmlns="http://www.w3.org/2000/svg" width="94" height="94" viewBox="0 0 94 94">
  <path d="M92.84375,88.53125 L66.125,61.8125 C79.1105362,46.4647215 77.6826981,23.6071569 62.8881106,9.99471275 C48.093523,-3.61773137 25.1963574,-3.1415108 10.9805483,11.0742983 C-3.2352608,25.2901074 -3.71148137,48.187273 9.90096275,62.9818606 C23.5134069,77.7764481 46.3709715,79.2042862 61.71875,66.21875 L88.4375,92.9375 C89.6773759,93.9993025 91.5256068,93.9279133 92.6798851,92.7736351 C93.8341633,91.6193568 93.9055525,89.7711259 92.84375,88.53125 Z M6.25,37.625 C6.25,20.3661016 20.2411016,6.375 37.5,6.375 C54.7588984,6.375 68.75,20.3661016 68.75,37.625 C68.75,54.8838984 54.7588984,68.875 37.5,68.875 C20.2411016,68.875 6.25,54.8838984 6.25,37.625 L6.25,37.625 Z"/>
  <path d="M50,40.75 L25,40.75 C23.2741102,40.75 21.875,39.3508898 21.875,37.625 C21.875,35.8991102 23.2741102,34.5 25,34.5 L50,34.5 C51.7258898,34.5 53.125,35.8991102 53.125,37.625 C53.125,39.3508898 51.7258898,40.75 50,40.75 Z"/>
</svg>
