<svg xmlns="http://www.w3.org/2000/svg" width="94" height="94" viewBox="0 0 94 94">
  <g fill-rule="evenodd">
    <path d="M92.969,88.530998 L66.25,61.812 C74.6641,51.8667 77.312,38.269 73.25,25.89 C69.1875,13.515 58.992,4.136 46.32,1.113 C33.648,-1.9065 20.316,1.863 11.105,11.0739 C1.894101,20.2848 -1.874998,33.6169 1.144101,46.2889 C4.167501,58.9609 13.5461,69.1559 25.9211,73.2189 C38.3001,77.2814 51.8981,74.633 61.8431,66.2189 L88.5621,92.937898 C89.8004,94.000398 91.6519,93.930088 92.8043,92.773838 C93.9605,91.621538 94.0309,89.769938 92.96836,88.531638 L92.969,88.530998 Z M6.375,37.625 C6.375,29.3359 9.668,21.387 15.5273,15.527 C21.3866,9.667 29.3363,6.3747 37.6253,6.3747 C45.9143,6.3747 53.8633,9.6677 59.7233,15.527 C65.5833,21.3863 68.8756,29.336 68.8756,37.625 C68.8756,45.914 65.5826,53.863 59.7233,59.723 C53.864,65.583 45.9143,68.8753 37.6253,68.8753 C29.3363,68.8753 21.3873,65.5823 15.5273,59.723 C9.6673,53.8637 6.375,45.914 6.375,37.625 Z"/>
    <path d="M50.125,34.5 L40.75,34.5 L40.75,25.125 C40.75,23.3984 39.3516,22 37.625,22 C35.8984,22 34.5,23.3984 34.5,25.125 L34.5,34.5 L25.125,34.5 C23.3984,34.5 22,35.8984 22,37.625 C22,39.3516 23.3984,40.75 25.125,40.75 L34.5,40.75 L34.5,50.125 C34.5,51.8516 35.8984,53.25 37.625,53.25 C39.3516,53.25 40.75,51.8516 40.75,50.125 L40.75,40.75 L50.125,40.75 C51.8516,40.75 53.25,39.3516 53.25,37.625 C53.25,35.8984 51.8516,34.5 50.125,34.5 Z"/>
  </g>
</svg>
